<svg width="212" height="33" viewBox="0 0 212 33" fill="none" xmlns="http://www.w3.org/2000/svg">
<path d="M58.0852 19.517L53.4795 7.20972H55.5702L59.4091 17.4167L67.2189 7.20972H69.2841L59.9919 19.4893L58.7743 25.8159H56.8676L58.0852 19.517Z" fill="#0047AB"/>
<path d="M67.7752 16.5133C68.7812 11.2812 73.7048 6.99719 78.9199 6.99719C84.0551 6.99719 87.3911 11.2235 86.3638 16.5133C85.3844 21.7455 80.4608 26.0028 75.2457 26.0028C69.9733 26.0028 66.7692 21.7498 67.7752 16.5133ZM84.4529 16.5133C85.2738 12.287 82.7854 8.80496 78.5753 8.80496C74.3397 8.80496 70.5018 12.2603 69.6808 16.5133C68.8865 20.7129 71.2962 24.195 75.5839 24.195C79.8195 24.195 83.6319 20.7663 84.4529 16.5133Z" fill="#0047AB"/>
<path d="M90.86 7.20972H93.8249L100.972 24.0359L104.202 7.20972H106.082L102.481 25.817H99.5429L92.3956 8.88401L89.1394 25.817H87.2593L90.86 7.20972Z" fill="#0047AB"/>
<path d="M114.818 8.99079H108.412L108.756 7.20972H124.004L122.998 8.99079H116.724L113.467 25.817H111.561L114.818 8.99079ZM129.272 7.20972H132.158L135.784 25.817H133.772L132.846 21.1913H126.335L125.646 19.4338H132.581L130.438 8.61813L120.324 25.817H118.312L129.272 7.20972Z" fill="#0047AB"/>
<path d="M149.154 7.20972H151.059L147.459 25.817H145.553L149.154 7.20972ZM149.604 24.0359H157.36L157.016 25.817H150.292L149.604 24.0359Z" fill="#0047AB"/>
<path d="M169.987 7.20972H172.794L176.446 25.817H174.436L173.508 21.1913H166.996L166.308 19.4338H173.27L171.126 8.61813L161.013 25.817H159.028L169.987 7.20972ZM178.988 23.3707L182.112 7.20972H190.504C193.92 7.20972 195.608 9.0698 195.057 11.9144C194.632 14.0681 193.23 15.6356 191.298 16.2475C193.416 16.8583 194.448 18.3211 193.972 20.7931C193.334 23.9558 190.795 25.817 187.166 25.817H179.356L178.988 23.3707ZM187.406 24.0626C189.869 24.0626 191.642 22.8389 192.066 20.5272C192.569 18.0286 190.875 17.1508 188.572 17.1508H182.058L180.708 24.0626H187.406ZM188.682 15.5566C190.986 15.5566 192.759 14.2806 193.183 12.1536C193.554 10.16 192.438 8.96409 190.139 8.96409H183.652L182.356 15.5566H188.682Z" fill="#0047AB"/>
<path d="M195.67 23.9025L196.067 21.8289C197.947 23.4241 200.091 24.2218 202.686 24.2218C205.439 24.2218 207.979 23.1049 208.404 20.9255C208.774 19.012 207.212 18.0553 204.195 17.3367C200.302 16.3532 197.205 15.53 197.867 12.0735C198.529 8.67157 202.235 6.97058 205.889 6.97058C208.853 6.97058 210.919 8.11312 212.003 9.12324L211.607 11.2236C210.256 9.86749 208.218 8.77835 205.517 8.77835C202.817 8.77835 200.171 9.86749 199.746 12.1536C199.35 14.1472 201.6 14.7857 204.511 15.4766C208.535 16.4066 210.892 17.736 210.254 20.8988C209.593 24.3542 205.913 26.0295 202.312 26.0295C199.135 26.0295 197.388 25.0728 195.67 23.9025Z" fill="#0047AB"/>
<path d="M24.9341 0L16.4618 19.8299L15.7174 21.58L12.3793 13.0131L7.8268 1.3358H1.99073L10.7108 22.4406L10.9107 22.9211C11.5701 24.5193 11.9042 26.2339 11.8934 27.9637C11.8827 29.6936 11.5272 31.4038 10.848 32.9936H8.50846V32.9989H3.79217L8.80409 21.3323L0 0H8.73497L13.1258 11.2641L17.9655 0H24.9341Z" fill="#0047AB"/>
<path d="M37.3805 1.67004L37.004 2.55951H29.9907L30.3704 1.67004H37.3805Z" fill="#FF6300"/>
<path d="M35.7076 5.62195H28.6858L29.2771 4.23169H36.2946L35.7076 5.62195Z" fill="#FF6300"/>
<path d="M34.1997 9.18292H27.1672L27.9733 7.29187H35.0004L34.1997 9.18292Z" fill="#FF6300"/>
<path d="M32.478 13.2469H25.4338L26.4537 10.8551H33.4903L32.478 13.2469Z" fill="#FF6300"/>
<path d="M37.7781 26.8101V32.9936L16.9509 32.9979L23.5612 17.6143L24.7203 14.9192H31.7708L30.6361 17.6143L26.761 26.8037L37.7781 26.8101Z" fill="#FF6300"/>
<path d="M37.3805 1.67004L37.004 2.55951H29.9907L30.3704 1.67004H37.3805Z" fill="#0047AB"/>
<path d="M36.2946 4.23169L35.7076 5.62195H28.6858L29.2771 4.23169H36.2946Z" fill="#404E80"/>
<path d="M35.0004 7.29187L34.1997 9.18292H27.1672L27.9733 7.29187H35.0004Z" fill="#805556"/>
<path d="M33.4903 10.8551L32.478 13.2469H25.4338L26.4537 10.8551H33.4903Z" fill="#BF5C2B"/>
</svg>
