<svg width="29" height="25" viewBox="0 0 29 25" fill="none" xmlns="http://www.w3.org/2000/svg">
<path d="M19.1405 0L12.637 15.0231L12.0637 16.3485L9.50139 9.86042V9.85867L6.00796 1.01178H1.52782L8.21847 17.0011L8.21493 17.0029L8.36818 17.3669C8.87434 18.5778 9.13087 19.8768 9.12267 21.1874C9.11446 22.498 8.84169 23.7937 8.3204 24.9982H6.52006V25.0018H2.91019L6.75966 16.1615V16.1598L0 0H6.70551L10.0765 8.53335L13.7908 0H19.1405Z" fill="#0047AB"/>
<path d="M28.6953 1.26489L28.4061 1.9393H23.0225L23.3134 1.26489H28.6953Z" fill="#FF6300"/>
<path d="M27.4106 4.25919H22.0203L22.4747 3.20532H27.8615L27.4106 4.25919Z" fill="#FF6300"/>
<path d="M26.2536 6.95726H20.8547L21.4741 5.52393H26.8676L26.2536 6.95726Z" fill="#FF6300"/>
<path d="M24.9315 10.0362H19.5242L20.307 8.22339H25.7091L24.9315 10.0362Z" fill="#FF6300"/>
<path d="M28.9996 20.3112V24.9952L13.0125 24.9987L18.0861 13.3444L18.9762 11.3022H24.3885L23.5175 13.3444L20.5433 20.3062L28.9996 20.3112Z" fill="#FF6300"/>
<path d="M28.6953 1.26489L28.4061 1.9393H23.0225L23.3134 1.26489H28.6953Z" fill="#0047AB"/>
<path d="M27.8615 3.20532L27.4106 4.25919H22.0203L22.4747 3.20532H27.8615Z" fill="#404E80"/>
<path d="M26.8676 5.52393L26.2536 6.95726H20.8547L21.4741 5.52393H26.8676Z" fill="#805556"/>
<path d="M25.7091 8.22339L24.9315 10.0362H19.5242L20.307 8.22339H25.7091Z" fill="#BF5C2B"/>
</svg>
